<svg xmlns="http://www.w3.org/2000/svg" viewBox="0 0 800 640" role="img" aria-label="Golden butter pancakes">
  <defs><linearGradient id="b" x1="0" y1="0" x2="1" y2="1"><stop stop-color="#f9e4b8"/><stop offset="1" stop-color="#c68b32"/></linearGradient><linearGradient id="p" x1="0" y1="0" x2="0" y2="1"><stop stop-color="#efb75f"/><stop offset="1" stop-color="#9d5521"/></linearGradient><filter id="s"><feDropShadow dx="0" dy="18" stdDeviation="18" flood-color="#6c3b12" flood-opacity=".26"/></filter></defs>
  <rect width="800" height="640" fill="url(#b)"/>
  <circle cx="400" cy="330" r="245" fill="#fffaf0" stroke="#fff" stroke-width="18" filter="url(#s)"/>
  <g filter="url(#s)"><ellipse cx="400" cy="430" rx="190" ry="62" fill="#8c481f" opacity=".35"/><ellipse cx="400" cy="400" rx="180" ry="70" fill="url(#p)"/><ellipse cx="400" cy="345" rx="165" ry="65" fill="url(#p)"/><ellipse cx="400" cy="290" rx="148" ry="61" fill="url(#p)"/><ellipse cx="400" cy="236" rx="132" ry="58" fill="#e9b25a"/></g>
  <rect x="345" y="195" width="110" height="65" rx="12" fill="#ffdc72" stroke="#cf9532" stroke-width="3" transform="rotate(-8 400 228)"/>
  <path d="M395 211c-70 116-112 170-139 191" fill="none" stroke="#c07b25" stroke-linecap="round" stroke-width="14" opacity=".7"/>
  <g fill="#9f2d28"><circle cx="250" cy="226" r="18"/><circle cx="538" cy="374" r="17"/><circle cx="512" cy="199" r="15"/></g>
  <g fill="#435a37"><path d="m235 205 17-21 7 28Z"/><path d="m524 355 17-21 7 28Z"/><path d="m499 184 17-21 7 28Z"/></g>
</svg>
